<svg xmlns="http://www.w3.org/2000/svg" viewBox="0 0 1400 760" role="img" aria-label="Kids Mela new season collection">
  <defs>
    <linearGradient id="bg" x1="0" x2="1" y1="0" y2="1">
      <stop offset="0" stop-color="#111827"/>
      <stop offset=".52" stop-color="#881337"/>
      <stop offset="1" stop-color="#f97316"/>
    </linearGradient>
    <linearGradient id="dress" x1="0" x2="1">
      <stop offset="0" stop-color="#fb7185"/>
      <stop offset="1" stop-color="#be123c"/>
    </linearGradient>
  </defs>
  <rect width="1400" height="760" fill="url(#bg)"/>
  <circle cx="1080" cy="118" r="188" fill="#ffffff" opacity=".08"/>
  <circle cx="1220" cy="590" r="250" fill="#ffffff" opacity=".08"/>
  <rect x="760" y="110" width="396" height="560" rx="198" fill="#fff7ed" opacity=".94"/>
  <path d="M924 190h82l44 118-48 36 80 234H848l80-234-48-36 44-118z" fill="url(#dress)"/>
  <path d="M924 190l41 58 41-58m-41 58v330" stroke="#fff1f2" stroke-width="10" stroke-linecap="round" fill="none"/>
  <g fill="#fff1f2" opacity=".85">
    <circle cx="912" cy="348" r="15"/><circle cx="1016" cy="388" r="18"/><circle cx="944" cy="474" r="14"/><circle cx="1010" cy="540" r="13"/>
  </g>
  <rect x="1096" y="318" width="170" height="210" rx="22" fill="#7c2d12"/>
  <path d="M1132 318c8-54 38-84 70-84s62 30 70 84" stroke="#fed7aa" stroke-width="16" fill="none" stroke-linecap="round"/>
  <rect x="656" y="360" width="172" height="140" rx="70" fill="#0f172a"/>
  <path d="M670 420c50-4 90-28 128-72 28 44 52 62 86 68 20 4 34 20 34 42v30H654v-34c0-22 6-32 16-34z" fill="#e11d48"/>
  <rect x="654" y="488" width="264" height="32" rx="16" fill="#e5e7eb"/>
</svg>
