<svg xmlns="http://www.w3.org/2000/svg" viewBox="0 0 900 520" role="img" aria-label="Shoes and bags collection">
  <rect width="900" height="520" fill="#fff7ed"/>
  <rect x="512" y="118" width="190" height="230" rx="24" fill="#9a3412"/>
  <path d="M548 118c8-60 42-94 80-94s72 34 80 94" stroke="#7c2d12" stroke-width="18" fill="none" stroke-linecap="round"/>
  <path d="M410 348c62-6 108-38 154-92 30 44 58 65 96 74 24 6 40 26 40 52v34H386v-36c0-19 8-30 24-32z" fill="#0f172a"/>
  <path d="M410 348c62-6 108-38 154-92 21 31 42 51 66 64-54 40-114 62-182 66-26 2-48 1-64-3 1-19 10-33 26-35z" fill="#e11d48"/>
  <rect x="386" y="416" width="314" height="36" rx="18" fill="#e5e7eb"/>
</svg>
